<mxfile host="app.diagrams.net" agent="Mozilla/5.0 (Macintosh; Intel Mac OS X 10_15_7) AppleWebKit/537.36 (KHTML, like Gecko) Chrome/131.0.0.0 Safari/537.36" version="25.0.3">
  <diagram name="Page-1" id="Erleb5bvh1u6UTUmtLrK">
    <mxGraphModel dx="1949" dy="1881" grid="1" gridSize="10" guides="1" tooltips="1" connect="1" arrows="1" fold="1" page="1" pageScale="1" pageWidth="827" pageHeight="1169" math="0" shadow="0">
      <root>
        <mxCell id="0" />
        <mxCell id="1" parent="0" />
        <mxCell id="NUTd6qAYSp1v9BqQSkJL-1" value="Pulsar" style="swimlane;whiteSpace=wrap;html=1;" vertex="1" parent="1">
          <mxGeometry x="320" y="-1120" width="200" height="440" as="geometry" />
        </mxCell>
        <mxCell id="NUTd6qAYSp1v9BqQSkJL-2" value="Topic: EntityRelationJobs" style="rounded=0;whiteSpace=wrap;html=1;fillColor=#dae8fc;strokeColor=#6c8ebf;" vertex="1" parent="NUTd6qAYSp1v9BqQSkJL-1">
          <mxGeometry x="20" y="40" width="160" height="80" as="geometry" />
        </mxCell>
        <mxCell id="NUTd6qAYSp1v9BqQSkJL-12" value="Topic: FlagJobs" style="rounded=0;whiteSpace=wrap;html=1;fillColor=#dae8fc;strokeColor=#6c8ebf;" vertex="1" parent="NUTd6qAYSp1v9BqQSkJL-1">
          <mxGeometry x="20" y="140" width="160" height="80" as="geometry" />
        </mxCell>
        <mxCell id="NUTd6qAYSp1v9BqQSkJL-13" value="Topic: RiskJobs" style="rounded=0;whiteSpace=wrap;html=1;fillColor=#dae8fc;strokeColor=#6c8ebf;" vertex="1" parent="NUTd6qAYSp1v9BqQSkJL-1">
          <mxGeometry x="20" y="240" width="160" height="80" as="geometry" />
        </mxCell>
        <mxCell id="NUTd6qAYSp1v9BqQSkJL-31" value="Topic: CaseReportJobs" style="rounded=0;whiteSpace=wrap;html=1;fillColor=#dae8fc;strokeColor=#6c8ebf;" vertex="1" parent="NUTd6qAYSp1v9BqQSkJL-1">
          <mxGeometry x="20" y="340" width="160" height="80" as="geometry" />
        </mxCell>
        <mxCell id="NUTd6qAYSp1v9BqQSkJL-8" style="edgeStyle=orthogonalEdgeStyle;rounded=0;orthogonalLoop=1;jettySize=auto;html=1;startArrow=classic;startFill=1;" edge="1" parent="1" source="NUTd6qAYSp1v9BqQSkJL-3" target="NUTd6qAYSp1v9BqQSkJL-5">
          <mxGeometry relative="1" as="geometry" />
        </mxCell>
        <mxCell id="NUTd6qAYSp1v9BqQSkJL-3" value="Frontend" style="rounded=0;whiteSpace=wrap;html=1;" vertex="1" parent="1">
          <mxGeometry x="700" y="-920" width="120" height="60" as="geometry" />
        </mxCell>
        <mxCell id="NUTd6qAYSp1v9BqQSkJL-37" style="edgeStyle=orthogonalEdgeStyle;rounded=0;orthogonalLoop=1;jettySize=auto;html=1;entryX=1;entryY=0.5;entryDx=0;entryDy=0;" edge="1" parent="1" source="NUTd6qAYSp1v9BqQSkJL-4" target="NUTd6qAYSp1v9BqQSkJL-5">
          <mxGeometry relative="1" as="geometry" />
        </mxCell>
        <mxCell id="NUTd6qAYSp1v9BqQSkJL-38" style="edgeStyle=orthogonalEdgeStyle;rounded=0;orthogonalLoop=1;jettySize=auto;html=1;entryX=1;entryY=0.5;entryDx=0;entryDy=0;" edge="1" parent="1" source="NUTd6qAYSp1v9BqQSkJL-4" target="NUTd6qAYSp1v9BqQSkJL-3">
          <mxGeometry relative="1" as="geometry" />
        </mxCell>
        <mxCell id="NUTd6qAYSp1v9BqQSkJL-4" value="User" style="shape=umlActor;verticalLabelPosition=bottom;verticalAlign=top;html=1;outlineConnect=0;" vertex="1" parent="1">
          <mxGeometry x="910" y="-1000" width="30" height="60" as="geometry" />
        </mxCell>
        <mxCell id="NUTd6qAYSp1v9BqQSkJL-14" style="edgeStyle=orthogonalEdgeStyle;rounded=0;orthogonalLoop=1;jettySize=auto;html=1;" edge="1" parent="1" source="NUTd6qAYSp1v9BqQSkJL-5" target="NUTd6qAYSp1v9BqQSkJL-2">
          <mxGeometry relative="1" as="geometry" />
        </mxCell>
        <mxCell id="NUTd6qAYSp1v9BqQSkJL-15" style="edgeStyle=orthogonalEdgeStyle;rounded=0;orthogonalLoop=1;jettySize=auto;html=1;entryX=1;entryY=0.5;entryDx=0;entryDy=0;" edge="1" parent="1" source="NUTd6qAYSp1v9BqQSkJL-5" target="NUTd6qAYSp1v9BqQSkJL-12">
          <mxGeometry relative="1" as="geometry" />
        </mxCell>
        <mxCell id="NUTd6qAYSp1v9BqQSkJL-23" value="Produces" style="edgeLabel;html=1;align=center;verticalAlign=middle;resizable=0;points=[];" vertex="1" connectable="0" parent="NUTd6qAYSp1v9BqQSkJL-15">
          <mxGeometry x="-0.54" y="-3" relative="1" as="geometry">
            <mxPoint y="-7" as="offset" />
          </mxGeometry>
        </mxCell>
        <mxCell id="NUTd6qAYSp1v9BqQSkJL-16" style="edgeStyle=orthogonalEdgeStyle;rounded=0;orthogonalLoop=1;jettySize=auto;html=1;entryX=1;entryY=0.5;entryDx=0;entryDy=0;" edge="1" parent="1" source="NUTd6qAYSp1v9BqQSkJL-5" target="NUTd6qAYSp1v9BqQSkJL-13">
          <mxGeometry relative="1" as="geometry" />
        </mxCell>
        <mxCell id="NUTd6qAYSp1v9BqQSkJL-34" style="edgeStyle=orthogonalEdgeStyle;rounded=0;orthogonalLoop=1;jettySize=auto;html=1;entryX=1;entryY=0.5;entryDx=0;entryDy=0;" edge="1" parent="1" source="NUTd6qAYSp1v9BqQSkJL-5" target="NUTd6qAYSp1v9BqQSkJL-31">
          <mxGeometry relative="1" as="geometry" />
        </mxCell>
        <mxCell id="NUTd6qAYSp1v9BqQSkJL-5" value="Web Server API" style="rounded=0;whiteSpace=wrap;html=1;" vertex="1" parent="1">
          <mxGeometry x="700" y="-1070" width="120" height="60" as="geometry" />
        </mxCell>
        <mxCell id="NUTd6qAYSp1v9BqQSkJL-29" style="edgeStyle=orthogonalEdgeStyle;rounded=0;orthogonalLoop=1;jettySize=auto;html=1;entryX=0;entryY=0.25;entryDx=0;entryDy=0;" edge="1" parent="1" source="NUTd6qAYSp1v9BqQSkJL-9" target="NUTd6qAYSp1v9BqQSkJL-13">
          <mxGeometry relative="1" as="geometry">
            <Array as="points">
              <mxPoint x="20" y="-1040" />
              <mxPoint x="20" y="-890" />
              <mxPoint x="280" y="-890" />
              <mxPoint x="280" y="-860" />
            </Array>
          </mxGeometry>
        </mxCell>
        <mxCell id="NUTd6qAYSp1v9BqQSkJL-30" value="Produces" style="edgeLabel;html=1;align=center;verticalAlign=middle;resizable=0;points=[];" vertex="1" connectable="0" parent="NUTd6qAYSp1v9BqQSkJL-29">
          <mxGeometry x="0.1296" relative="1" as="geometry">
            <mxPoint x="-145" y="-120" as="offset" />
          </mxGeometry>
        </mxCell>
        <mxCell id="NUTd6qAYSp1v9BqQSkJL-39" style="edgeStyle=orthogonalEdgeStyle;rounded=0;orthogonalLoop=1;jettySize=auto;html=1;entryX=0;entryY=0.25;entryDx=0;entryDy=0;" edge="1" parent="1" source="NUTd6qAYSp1v9BqQSkJL-9" target="NUTd6qAYSp1v9BqQSkJL-12">
          <mxGeometry relative="1" as="geometry">
            <Array as="points">
              <mxPoint x="20" y="-1040" />
              <mxPoint x="20" y="-990" />
              <mxPoint x="280" y="-990" />
              <mxPoint x="280" y="-960" />
            </Array>
          </mxGeometry>
        </mxCell>
        <mxCell id="NUTd6qAYSp1v9BqQSkJL-9" value="Entity Relation Service" style="rounded=0;whiteSpace=wrap;html=1;" vertex="1" parent="1">
          <mxGeometry x="60" y="-1070" width="120" height="60" as="geometry" />
        </mxCell>
        <mxCell id="NUTd6qAYSp1v9BqQSkJL-10" value="Risk Service" style="rounded=0;whiteSpace=wrap;html=1;" vertex="1" parent="1">
          <mxGeometry x="60" y="-870" width="120" height="60" as="geometry" />
        </mxCell>
        <mxCell id="NUTd6qAYSp1v9BqQSkJL-11" value="Flags Service" style="rounded=0;whiteSpace=wrap;html=1;" vertex="1" parent="1">
          <mxGeometry x="60" y="-970" width="120" height="60" as="geometry" />
        </mxCell>
        <mxCell id="NUTd6qAYSp1v9BqQSkJL-17" style="edgeStyle=orthogonalEdgeStyle;rounded=0;orthogonalLoop=1;jettySize=auto;html=1;entryX=1;entryY=0.5;entryDx=0;entryDy=0;strokeColor=default;startArrow=classic;startFill=1;" edge="1" parent="1" source="NUTd6qAYSp1v9BqQSkJL-2" target="NUTd6qAYSp1v9BqQSkJL-9">
          <mxGeometry relative="1" as="geometry" />
        </mxCell>
        <mxCell id="NUTd6qAYSp1v9BqQSkJL-20" value="Produces &amp;amp; Consumes" style="edgeLabel;html=1;align=center;verticalAlign=middle;resizable=0;points=[];" vertex="1" connectable="0" parent="NUTd6qAYSp1v9BqQSkJL-17">
          <mxGeometry x="0.1875" y="1" relative="1" as="geometry">
            <mxPoint x="5" y="-11" as="offset" />
          </mxGeometry>
        </mxCell>
        <mxCell id="NUTd6qAYSp1v9BqQSkJL-18" style="edgeStyle=orthogonalEdgeStyle;rounded=0;orthogonalLoop=1;jettySize=auto;html=1;entryX=1;entryY=0.5;entryDx=0;entryDy=0;" edge="1" parent="1" source="NUTd6qAYSp1v9BqQSkJL-12" target="NUTd6qAYSp1v9BqQSkJL-11">
          <mxGeometry relative="1" as="geometry">
            <mxPoint x="230" y="-940" as="targetPoint" />
          </mxGeometry>
        </mxCell>
        <mxCell id="NUTd6qAYSp1v9BqQSkJL-19" style="edgeStyle=orthogonalEdgeStyle;rounded=0;orthogonalLoop=1;jettySize=auto;html=1;" edge="1" parent="1" source="NUTd6qAYSp1v9BqQSkJL-13" target="NUTd6qAYSp1v9BqQSkJL-10">
          <mxGeometry relative="1" as="geometry" />
        </mxCell>
        <mxCell id="NUTd6qAYSp1v9BqQSkJL-24" value="Consumes" style="edgeLabel;html=1;align=center;verticalAlign=middle;resizable=0;points=[];" vertex="1" connectable="0" parent="1">
          <mxGeometry x="250" y="-1030" as="geometry">
            <mxPoint x="-11" y="82" as="offset" />
          </mxGeometry>
        </mxCell>
        <mxCell id="NUTd6qAYSp1v9BqQSkJL-25" value="Consumes" style="edgeLabel;html=1;align=center;verticalAlign=middle;resizable=0;points=[];" vertex="1" connectable="0" parent="1">
          <mxGeometry x="250" y="-930" as="geometry">
            <mxPoint x="-11" y="82" as="offset" />
          </mxGeometry>
        </mxCell>
        <mxCell id="NUTd6qAYSp1v9BqQSkJL-26" value="AI Case Report" style="rounded=0;whiteSpace=wrap;html=1;" vertex="1" parent="1">
          <mxGeometry x="60" y="-770" width="120" height="60" as="geometry" />
        </mxCell>
        <mxCell id="NUTd6qAYSp1v9BqQSkJL-32" style="edgeStyle=orthogonalEdgeStyle;rounded=0;orthogonalLoop=1;jettySize=auto;html=1;" edge="1" parent="1" source="NUTd6qAYSp1v9BqQSkJL-31" target="NUTd6qAYSp1v9BqQSkJL-26">
          <mxGeometry relative="1" as="geometry" />
        </mxCell>
        <mxCell id="NUTd6qAYSp1v9BqQSkJL-33" value="Consumes" style="edgeLabel;html=1;align=center;verticalAlign=middle;resizable=0;points=[];" vertex="1" connectable="0" parent="NUTd6qAYSp1v9BqQSkJL-32">
          <mxGeometry x="0.3284" relative="1" as="geometry">
            <mxPoint y="-10" as="offset" />
          </mxGeometry>
        </mxCell>
        <mxCell id="NUTd6qAYSp1v9BqQSkJL-35" value="Postgres db" style="shape=datastore;whiteSpace=wrap;html=1;" vertex="1" parent="1">
          <mxGeometry x="365" y="-660" width="110" height="130" as="geometry" />
        </mxCell>
        <mxCell id="NUTd6qAYSp1v9BqQSkJL-36" value="All services &amp;amp; web server connected" style="text;html=1;align=center;verticalAlign=middle;whiteSpace=wrap;rounded=0;" vertex="1" parent="1">
          <mxGeometry x="330" y="-510" width="190" height="30" as="geometry" />
        </mxCell>
      </root>
    </mxGraphModel>
  </diagram>
</mxfile>
